<svg width="121" height="105" viewBox="0 0 121 105" fill="none" xmlns="http://www.w3.org/2000/svg">
<path d="M113.804 22.653H7.19576C5.01145 22.653 3.24072 24.4237 3.24072 26.6081V98.4628C3.24072 100.647 5.01145 102.418 7.19576 102.418H113.804C115.989 102.418 117.76 100.647 117.76 98.4628V26.6081C117.76 24.4237 115.989 22.653 113.804 22.653Z" fill="#727373"/>
<path d="M3.35338 53.428C3.3235 53.428 3.29485 53.4162 3.27372 53.395C3.25259 53.3739 3.24072 53.3453 3.24072 53.3154V62.7212C3.24072 62.7513 3.25251 62.7802 3.27357 62.8017C3.29463 62.8232 3.32328 62.8356 3.35338 62.8362H117.647C117.677 62.8356 117.706 62.8232 117.727 62.8017C117.748 62.7802 117.76 62.7513 117.76 62.7212V53.3082C117.76 53.3381 117.748 53.3667 117.727 53.3879C117.705 53.409 117.677 53.4209 117.647 53.4209L3.35338 53.428Z" fill="#606161"/>
<path d="M113.804 22.653H7.19576C5.01145 22.653 3.24072 24.4237 3.24072 26.6081V98.4628C3.24072 100.647 5.01145 102.418 7.19576 102.418H113.804C115.989 102.418 117.76 100.647 117.76 98.4628V26.6081C117.76 24.4237 115.989 22.653 113.804 22.653Z" stroke="black" stroke-width="4.79399" stroke-linecap="round" stroke-linejoin="round"/>
<path d="M7.19576 22.653H113.804C114.853 22.653 115.859 23.0697 116.601 23.8114C117.343 24.5531 117.76 25.5591 117.76 26.6081V53.3082C117.76 53.3381 117.748 53.3667 117.727 53.3878C117.705 53.409 117.677 53.4208 117.647 53.4208H3.35338C3.3235 53.4208 3.29485 53.409 3.27372 53.3878C3.25259 53.3667 3.24072 53.3381 3.24072 53.3082V26.6081C3.24072 25.5591 3.65741 24.5531 4.39913 23.8114C5.14084 23.0697 6.14682 22.653 7.19576 22.653Z" fill="#49494A"/>
<path d="M7.19576 22.653H113.804C114.853 22.653 115.859 23.0697 116.601 23.8114C117.343 24.5531 117.76 25.5591 117.76 26.6081V53.3082C117.76 53.3381 117.748 53.3667 117.727 53.3878C117.705 53.409 117.677 53.4208 117.647 53.4208H3.35338C3.3235 53.4208 3.29485 53.409 3.27372 53.3878C3.25259 53.3667 3.24072 53.3381 3.24072 53.3082V26.6081C3.24072 25.5591 3.65741 24.5531 4.39913 23.8114C5.14084 23.0697 6.14682 22.653 7.19576 22.653V22.653Z" stroke="black" stroke-width="4.79399" stroke-linecap="round" stroke-linejoin="round"/>
<path d="M45.725 3.00009H75.2751C76.1621 3.00009 77.0403 3.17483 77.8597 3.51431C78.6791 3.8538 79.4236 4.35139 80.0506 4.97865C80.6776 5.60592 81.175 6.35057 81.5142 7.17008C81.8534 7.98959 82.0278 8.86789 82.0275 9.75482V22.5404C82.0275 22.5552 82.0246 22.5698 82.0189 22.5835C82.0132 22.5972 82.0049 22.6096 81.9945 22.6201C81.984 22.6305 81.9716 22.6388 81.9579 22.6445C81.9443 22.6501 81.9296 22.653 81.9148 22.653H39.0853C39.0554 22.653 39.0268 22.6412 39.0057 22.6201C38.9845 22.5989 38.9727 22.5703 38.9727 22.5404V9.75482C38.9723 8.86789 39.1468 7.98959 39.486 7.17008C39.8252 6.35057 40.3225 5.60592 40.9495 4.97865C41.5766 4.35139 42.321 3.8538 43.1404 3.51431C43.9598 3.17483 44.8381 3.00009 45.725 3.00009V3.00009Z" stroke="black" stroke-width="4.79399" stroke-linecap="round" stroke-linejoin="round"/>
<path d="M28.6202 70.0488C26.6641 70.0488 24.7881 69.2718 23.4049 67.8886C22.0217 66.5054 21.2446 64.6294 21.2446 62.6733V53.5359C21.2446 53.5058 21.2564 53.4769 21.2775 53.4554C21.2985 53.4339 21.3272 53.4215 21.3573 53.4209H35.8807C35.9112 53.4209 35.9405 53.433 35.962 53.4546C35.9836 53.4761 35.9957 53.5054 35.9957 53.5359V62.6733C35.9957 63.6418 35.805 64.6009 35.4343 65.4958C35.0636 66.3906 34.5204 67.2037 33.8355 67.8886C33.1506 68.5735 32.3375 69.1167 31.4427 69.4874C30.5478 69.858 29.5888 70.0488 28.6202 70.0488Z" fill="#FFC43D"/>
<path d="M21.2397 62.6733C21.2397 62.726 21.2541 62.7763 21.2541 62.8291H35.9741C35.9741 62.7763 35.9908 62.726 35.9908 62.6733V53.5359C35.9908 53.5054 35.9787 53.4761 35.9571 53.4546C35.9356 53.433 35.9063 53.4209 35.8758 53.4209H21.3524C21.3223 53.4215 21.2937 53.4339 21.2726 53.4554C21.2515 53.4769 21.2397 53.5058 21.2397 53.5359V62.6733Z" fill="#FAAE17"/>
<path d="M85.1245 53.4281H99.6503C99.6651 53.4281 99.6797 53.431 99.6934 53.4367C99.7071 53.4423 99.7195 53.4506 99.7299 53.4611C99.7404 53.4715 99.7487 53.484 99.7544 53.4976C99.76 53.5113 99.7629 53.5259 99.7629 53.5407V62.6781C99.7623 63.6468 99.5708 64.606 99.1994 65.5008C98.828 66.3955 98.284 67.2084 97.5984 67.8928C96.9129 68.5773 96.0991 69.12 95.2038 69.4899C94.3084 69.8599 93.349 70.0498 92.3802 70.0488C90.4241 70.0488 88.5481 69.2718 87.1649 67.8886C85.7817 66.5054 85.0046 64.6294 85.0046 62.6733V53.5359C85.0046 53.5061 85.0165 53.4774 85.0376 53.4563C85.0588 53.4351 85.0874 53.4233 85.1173 53.4233L85.1245 53.4281Z" fill="#FFC43D"/>
<path d="M85.0095 62.6733C85.0095 62.726 85.0239 62.7763 85.0263 62.8291H99.7462C99.7462 62.7763 99.7606 62.726 99.7606 62.6733V53.5359C99.7606 53.5058 99.7488 53.4769 99.7278 53.4554C99.7067 53.4339 99.6781 53.4215 99.648 53.4209H85.1246C85.0941 53.4209 85.0648 53.433 85.0432 53.4546C85.0216 53.4761 85.0095 53.5054 85.0095 53.5359V62.6733Z" fill="#FAAE17"/>
<path d="M28.6202 70.0488C26.6641 70.0488 24.7881 69.2718 23.4049 67.8886C22.0217 66.5054 21.2446 64.6294 21.2446 62.6733V53.5359C21.2446 53.5058 21.2564 53.4769 21.2775 53.4554C21.2985 53.4339 21.3272 53.4215 21.3573 53.4209H35.8807C35.9112 53.4209 35.9405 53.433 35.962 53.4546C35.9836 53.4761 35.9957 53.5054 35.9957 53.5359V62.6733C35.9957 63.6418 35.805 64.6009 35.4343 65.4958C35.0636 66.3906 34.5204 67.2037 33.8355 67.8886C33.1506 68.5734 32.3375 69.1167 31.4427 69.4874C30.5478 69.858 29.5888 70.0488 28.6202 70.0488Z" stroke="black" stroke-width="4.79399" stroke-linecap="round" stroke-linejoin="round"/>
<path d="M85.1245 53.4281H99.6503C99.6651 53.4281 99.6797 53.431 99.6934 53.4367C99.7071 53.4423 99.7195 53.4506 99.7299 53.4611C99.7404 53.4715 99.7487 53.484 99.7544 53.4976C99.76 53.5113 99.7629 53.5259 99.7629 53.5407V62.6781C99.7623 63.6468 99.5708 64.606 99.1994 65.5008C98.828 66.3955 98.284 67.2084 97.5984 67.8928C96.9129 68.5773 96.0991 69.12 95.2038 69.4899C94.3084 69.8599 93.349 70.0498 92.3802 70.0488C90.4241 70.0488 88.5481 69.2718 87.1649 67.8886C85.7817 66.5054 85.0046 64.6294 85.0046 62.6733V53.5359C85.0046 53.5061 85.0165 53.4774 85.0376 53.4563C85.0588 53.4351 85.0874 53.4233 85.1173 53.4233L85.1245 53.4281Z" stroke="black" stroke-width="4.79399" stroke-linecap="round" stroke-linejoin="round"/>
</svg>
