<svg width="108" height="95" viewBox="0 0 108 95" fill="none" xmlns="http://www.w3.org/2000/svg">
<path d="M55.0996 75.0958C36.1926 75.0958 20.8638 66.6009 20.8638 53.0082V30.9206H89.3354V53.0082C89.3354 64.4297 74.0066 75.0958 55.0996 75.0958Z" fill="#203442"/>
<path d="M102.966 22.0656L61.2841 1.68536C59.0143 0.576494 56.5214 0.00012207 53.9952 0.00012207C51.469 0.00012207 48.9761 0.576494 46.7062 1.68536L5.02467 22.0656C3.78514 22.6711 2.74563 23.62 2.02982 24.7992C1.31401 25.9785 0.952023 27.3386 0.986925 28.7177C1.02183 30.0967 1.45215 31.4368 2.22669 32.5783C3.00124 33.7199 4.08741 34.6149 5.35598 35.157L10.9243 37.5468L47.4639 53.1827C49.5281 54.0659 51.75 54.5213 53.9952 54.5213C56.2404 54.5213 58.4623 54.0659 60.5265 53.1827L97.0661 37.5468L102.634 35.1658C103.905 34.6249 104.994 33.7298 105.77 32.5873C106.547 31.4448 106.978 30.1031 107.013 28.7223C107.048 27.3414 106.685 25.9796 105.967 24.7993C105.25 23.619 104.208 22.6701 102.966 22.0656Z" fill="#4C5665"/>
<path d="M89.3354 83.9309C88.7496 83.9309 88.1878 83.6982 87.7735 83.284C87.3593 82.8697 87.1266 82.3079 87.1266 81.7221V42.7618L56.0228 26.8123C55.5014 26.5446 55.1078 26.0807 54.9284 25.5227C54.7491 24.9648 54.7987 24.3584 55.0664 23.8371C55.3341 23.3157 55.798 22.922 56.3559 22.7427C56.9139 22.5633 57.5202 22.613 58.0416 22.8807L91.5441 40.0626V81.7221C91.5441 82.3079 91.3114 82.8697 90.8972 83.284C90.483 83.6982 89.9212 83.9309 89.3354 83.9309Z" fill="#ECF0F1"/>
<path d="M55.0996 30.9205C60.589 30.9205 65.039 27.9539 65.039 24.2943C65.039 20.6347 60.589 17.668 55.0996 17.668C49.6102 17.668 45.1602 20.6347 45.1602 24.2943C45.1602 27.9539 49.6102 30.9205 55.0996 30.9205Z" fill="#203442"/>
<path d="M89.3354 94.9747C94.2149 94.9747 98.1705 91.0191 98.1705 86.1396C98.1705 81.2602 94.2149 77.3046 89.3354 77.3046C84.456 77.3046 80.5004 81.2602 80.5004 86.1396C80.5004 91.0191 84.456 94.9747 89.3354 94.9747Z" fill="#FACE53"/>
</svg>
