<svg width="96" height="80" viewBox="0 0 96 80" fill="none" xmlns="http://www.w3.org/2000/svg">
<path d="M79.9338 3.99173H16.0673C9.45366 3.99173 4.09229 9.35311 4.09229 15.9667V63.8666C4.09229 70.4802 9.45366 75.8416 16.0673 75.8416H79.9338C86.5474 75.8416 91.9088 70.4802 91.9088 63.8666V15.9667C91.9088 9.35311 86.5474 3.99173 79.9338 3.99173Z" fill="#F19B5F"/>
<path d="M79.9338 3.99173H16.0673C9.45366 3.99173 4.09229 9.35311 4.09229 15.9667V43.9083C4.09229 50.5219 9.45366 55.8833 16.0673 55.8833H79.9338C86.5474 55.8833 91.9088 50.5219 91.9088 43.9083V15.9667C91.9088 9.35311 86.5474 3.99173 79.9338 3.99173Z" fill="#FFCE69"/>
<path d="M62.8376 40.0324L78.6286 25.6624C79.412 24.9499 79.8803 23.9554 79.9304 22.8977C79.9806 21.8399 79.6085 20.8056 78.896 20.0222C78.1836 19.2388 77.1891 18.7705 76.1313 18.7203C75.0736 18.6702 74.0392 19.0423 73.2558 19.7547L53.3893 37.837C51.9155 39.1791 49.9939 39.923 48.0006 39.923C46.0072 39.923 44.0856 39.1791 42.6118 37.837L22.7454 19.7587C21.962 19.0463 20.9276 18.6742 19.8699 18.7243C18.8121 18.7745 17.8176 19.2428 17.1052 20.0262C16.3927 20.8096 16.0206 21.8439 16.0707 22.9017C16.0956 23.4254 16.2233 23.9391 16.4467 24.4135C16.6701 24.8879 16.9847 25.3136 17.3726 25.6664L33.1676 40.0364L17.3766 54.3664C16.9713 54.7138 16.6399 55.139 16.4018 55.6168C16.1638 56.0945 16.024 56.6152 15.9907 57.1479C15.9574 57.6807 16.0313 58.2147 16.208 58.7184C16.3847 59.2221 16.6607 59.6852 17.0195 60.0804C17.3784 60.4755 17.8129 60.7947 18.2972 61.019C18.7816 61.2433 19.306 61.3682 19.8395 61.3863C20.373 61.4043 20.9047 61.3152 21.4031 61.1242C21.9016 60.9331 22.3566 60.6441 22.7414 60.2741L39.2788 45.2654C41.8613 46.9884 44.8962 47.9078 48.0006 47.9078C51.105 47.9078 54.1399 46.9884 56.7224 45.2654L73.2598 60.2741C73.6446 60.6441 74.0996 60.9331 74.598 61.1242C75.0965 61.3152 75.6282 61.4043 76.1616 61.3863C76.6951 61.3682 77.2196 61.2433 77.7039 61.019C78.1883 60.7947 78.6228 60.4755 78.9816 60.0804C79.3405 59.6852 79.6164 59.2221 79.7932 58.7184C79.9699 58.2147 80.0438 57.6807 80.0105 57.1479C79.9772 56.6152 79.8374 56.0945 79.5993 55.6168C79.3613 55.139 79.0299 54.7138 78.6246 54.3664L62.8376 40.0324Z" fill="#ED960A"/>
<path d="M79.9333 9.15527e-05H16.0667C11.8321 9.15527e-05 7.77094 1.68229 4.77662 4.67661C1.78229 7.67094 0.100098 11.7321 0.100098 15.9667L0.100098 63.8666C0.100098 68.1012 1.78229 72.1624 4.77662 75.1567C7.77094 78.1511 11.8321 79.8333 16.0667 79.8333H79.9333C84.1679 79.8333 88.2291 78.1511 91.2234 75.1567C94.2177 72.1624 95.8999 68.1012 95.8999 63.8666V15.9667C95.8999 11.7321 94.2177 7.67094 91.2234 4.67661C88.2291 1.68229 84.1679 9.15527e-05 79.9333 9.15527e-05ZM87.9166 63.8666C87.9166 65.9839 87.0755 68.0145 85.5783 69.5117C84.0812 71.0088 82.0506 71.8499 79.9333 71.8499H16.0667C13.9494 71.8499 11.9188 71.0088 10.4217 69.5117C8.92451 68.0145 8.08341 65.9839 8.08341 63.8666V15.9667C8.08341 13.8494 8.92451 11.8188 10.4217 10.3217C11.9188 8.8245 13.9494 7.98341 16.0667 7.98341H79.9333C82.0506 7.98341 84.0812 8.8245 85.5783 10.3217C87.0755 11.8188 87.9166 13.8494 87.9166 15.9667V63.8666Z" fill="#6C2E7C"/>
<path d="M78.896 20.0263C78.5433 19.6383 78.1176 19.3235 77.6432 19.1001C77.1689 18.8766 76.6551 18.7488 76.1313 18.724C75.6075 18.6992 75.084 18.7778 74.5906 18.9553C74.0972 19.1329 73.6437 19.4059 73.2558 19.7588L53.3893 37.8371C51.9155 39.1792 49.9939 39.9231 48.0006 39.9231C46.0072 39.9231 44.0856 39.1792 42.6118 37.8371L22.7454 19.7588C21.962 19.0464 20.9276 18.6743 19.8699 18.7244C18.8121 18.7746 17.8176 19.2429 17.1052 20.0263C16.3927 20.8097 16.0206 21.844 16.0707 22.9018C16.0956 23.4255 16.2233 23.9392 16.4467 24.4136C16.6701 24.888 16.9847 25.3137 17.3726 25.6665L33.1676 40.0365L17.3766 54.3665C16.9713 54.7139 16.6399 55.1391 16.4018 55.6169C16.1638 56.0946 16.024 56.6153 15.9907 57.148C15.9574 57.6808 16.0313 58.2148 16.208 58.7185C16.3847 59.2222 16.6607 59.6853 17.0195 60.0805C17.3784 60.4756 17.8129 60.7948 18.2972 61.0191C18.7816 61.2434 19.306 61.3683 19.8395 61.3864C20.373 61.4044 20.9047 61.3153 21.4031 61.1243C21.9016 60.9332 22.3566 60.6442 22.7414 60.2742L39.2788 45.2655C41.8613 46.9885 44.8962 47.9079 48.0006 47.9079C51.105 47.9079 54.1399 46.9885 56.7224 45.2655L73.2598 60.2742C73.6446 60.6442 74.0996 60.9332 74.598 61.1243C75.0965 61.3153 75.6282 61.4044 76.1616 61.3864C76.6951 61.3683 77.2196 61.2434 77.7039 61.0191C78.1883 60.7948 78.6228 60.4756 78.9816 60.0805C79.3405 59.6853 79.6164 59.2222 79.7932 58.7185C79.9699 58.2148 80.0438 57.6808 80.0105 57.148C79.9772 56.6153 79.8374 56.0946 79.5993 55.6169C79.3613 55.1391 79.0299 54.7139 78.6246 54.3665L62.8376 40.0325L78.6286 25.6625C79.411 24.9503 79.8787 23.9566 79.9289 22.8997C79.979 21.8429 79.6075 20.8094 78.896 20.0263Z" fill="#6C2E7C"/>
</svg>
