<svg width="63" height="103" viewBox="0 0 63 103" fill="none" xmlns="http://www.w3.org/2000/svg">
<path d="M45.9194 74.5137V65.5554C45.9004 63.2611 46.3651 60.9885 47.2832 58.8858C48.2013 56.7832 49.5522 54.8975 51.2479 53.3519C55.7245 49.3543 58.8824 44.0921 60.3041 38.2612C61.7258 32.4303 61.3443 26.3052 59.2101 20.6957C57.0759 15.0862 53.2894 10.2566 48.3514 6.84536C43.4133 3.43411 37.5562 1.6019 31.5545 1.59096C25.5528 1.58002 19.689 3.39088 14.7386 6.78411C9.78813 10.1773 5.9841 14.9931 3.82945 20.5948C1.6748 26.1964 1.271 32.3201 2.67143 38.1562C4.07186 43.9923 7.21057 49.2659 11.6726 53.2798C13.3821 54.8338 14.7461 56.7294 15.6765 58.8441C16.6068 60.9587 17.0827 63.2452 17.0732 65.5554V74.1852" fill="#FACE53"/>
<path d="M45.9194 76.1162C45.4944 76.1162 45.0867 75.9474 44.7862 75.6469C44.4857 75.3463 44.3168 74.9387 44.3168 74.5137V65.5554C44.2973 63.0361 44.8088 60.5409 45.818 58.2325C46.8272 55.9241 48.3115 53.8543 50.1742 52.1579C54.41 48.3778 57.3989 43.401 58.7455 37.8857C60.0921 32.3704 59.7331 26.5762 57.7159 21.2693C55.6988 15.9624 52.1185 11.3927 47.4484 8.16433C42.7783 4.93597 37.2383 3.20102 31.561 3.18887C25.8837 3.17672 20.3363 4.88794 15.6524 8.09627C10.9686 11.3046 7.36872 15.859 5.32885 21.1572C3.28899 26.4554 2.90519 32.248 4.22818 37.769C5.55118 43.29 8.51867 48.2795 12.7383 52.0778C14.6165 53.7833 16.1155 55.8643 17.1383 58.186C18.1612 60.5077 18.685 63.0184 18.6758 65.5554V74.1772C18.6758 74.6022 18.507 75.0098 18.2064 75.3103C17.9059 75.6109 17.4983 75.7797 17.0732 75.7797C16.6482 75.7797 16.2406 75.6109 15.9401 75.3103C15.6395 75.0098 15.4707 74.6022 15.4707 74.1772V65.5554C15.4779 63.4715 15.0481 61.4093 14.2089 59.5019C13.3698 57.5945 12.14 55.8843 10.5989 54.4816C5.89664 50.2511 2.58888 44.6932 1.11282 38.5426C-0.363248 32.392 0.0618786 25.9383 2.332 20.0345C4.60213 14.1306 8.61037 9.05469 13.8269 5.47752C19.0435 1.90036 25.2228 -0.00958773 31.548 0.00012844C37.8732 0.00984461 44.0466 1.93877 49.2522 5.53194C54.4577 9.12511 58.4503 14.2134 60.7023 20.1241C62.9543 26.0349 63.3596 32.4899 61.8646 38.6359C60.3697 44.782 57.0449 50.3297 52.3296 54.5457C50.7996 55.9399 49.5806 57.641 48.7522 59.5381C47.9238 61.4351 47.5046 63.4854 47.5219 65.5554V74.5137C47.5219 74.9387 47.3531 75.3463 47.0526 75.6469C46.752 75.9474 46.3444 76.1162 45.9194 76.1162Z" fill="#404040"/>
<path d="M45.9194 73.7124V86.5329C45.9088 90.3549 44.3859 94.0174 41.6833 96.7199C38.9807 99.4225 35.3183 100.945 31.4963 100.956C27.6743 100.945 24.0119 99.4225 21.3093 96.7199C18.6068 94.0174 17.0838 90.3549 17.0732 86.5329V73.7124H45.9194Z" fill="#9E9E9E"/>
<path d="M31.4959 102.559C27.2456 102.559 23.1694 100.87 20.164 97.8648C17.1586 94.8594 15.4702 90.7832 15.4702 86.533V73.7124C15.4702 73.2874 15.6391 72.8798 15.9396 72.5793C16.2401 72.2787 16.6478 72.1099 17.0728 72.1099H45.9189C46.344 72.1099 46.7516 72.2787 47.0521 72.5793C47.3526 72.8798 47.5215 73.2874 47.5215 73.7124V86.533C47.5215 90.7832 45.8331 94.8594 42.8277 97.8648C39.8223 100.87 35.7461 102.559 31.4959 102.559ZM18.6753 75.315V86.533C18.6753 89.9332 20.0261 93.1941 22.4304 95.5984C24.8347 98.0027 28.0956 99.3535 31.4959 99.3535C34.8961 99.3535 38.157 98.0027 40.5613 95.5984C42.9656 93.1941 44.3164 89.9332 44.3164 86.533V75.315H18.6753Z" fill="#404040"/>
<path d="M23.4833 83.3278C23.2729 83.3426 23.0616 83.3157 22.8615 83.2488C22.6614 83.1818 22.4765 83.0762 22.3173 82.9378C21.9957 82.6583 21.7983 82.2625 21.7686 81.8374C21.7388 81.4124 21.8791 80.993 22.1586 80.6714C22.4381 80.3498 22.8339 80.1525 23.259 80.1227L45.6948 76.9176C46.1199 76.857 46.5516 76.9678 46.8949 77.2255C47.2383 77.4832 47.4652 77.8667 47.5258 78.2918C47.5863 78.7168 47.4756 79.1485 47.2179 79.4918C46.9602 79.8352 46.5766 80.0621 46.1516 80.1227L23.7157 83.3278H23.4833Z" fill="#404040"/>
<path d="M23.4833 89.7381C23.0583 89.7678 22.6389 89.6275 22.3173 89.348C21.9957 89.0685 21.7983 88.6727 21.7686 88.2477C21.7388 87.8227 21.8791 87.4033 22.1586 87.0817C22.4381 86.7601 22.8339 86.5627 23.259 86.533L45.6948 83.3278C46.1199 83.2673 46.5516 83.378 46.8949 83.6357C47.2383 83.8935 47.4652 84.277 47.5258 84.702C47.5863 85.1271 47.4756 85.5587 47.2179 85.9021C46.9602 86.2455 46.5766 86.4724 46.1516 86.533L23.7157 89.7381H23.4833Z" fill="#404040"/>
</svg>
