<svg width="81" height="96" viewBox="0 0 81 96" fill="none" xmlns="http://www.w3.org/2000/svg">
<path d="M44.4675 71.9982C44.4675 77.3024 42.3604 82.3894 38.6097 86.1401C34.859 89.8908 29.772 91.9979 24.4677 91.9979C19.1635 91.9979 14.0764 89.8908 10.3258 86.1401C6.57507 82.3894 4.46796 77.3024 4.46796 71.9982C4.45261 68.4854 5.37796 65.0326 7.14793 61.9983C8.90335 58.9582 11.428 56.4337 14.4683 54.6785C17.5085 52.9233 20.9572 51.9993 24.4677 51.9993C27.9783 51.9993 31.4269 52.9233 34.4672 54.6785C37.5074 56.4337 40.0321 58.9582 41.7875 61.9983C43.5575 65.0326 44.4829 68.4854 44.4675 71.9982Z" fill="#4C5665"/>
<path d="M24.4682 71.9981C34.0337 71.9981 41.788 67.521 41.788 61.9982C41.788 56.4754 34.0337 51.9983 24.4682 51.9983C14.9028 51.9983 7.14844 56.4754 7.14844 61.9982C7.14844 67.521 14.9028 71.9981 24.4682 71.9981Z" fill="#636E7E"/>
<path d="M48.4677 15.2587C52.0661 19.1212 56.3919 22.2349 61.1969 24.4212C66.0018 26.6075 71.1913 27.8232 76.4673 27.9985C77.5282 27.9985 78.5456 27.5771 79.2957 26.8269C80.0459 26.0768 80.4673 25.0594 80.4673 23.9986C80.4673 22.9377 80.0459 21.9203 79.2957 21.1702C78.5456 20.42 77.5282 19.9986 76.4673 19.9986C59.0315 19.9986 48.0037 2.1148 47.8957 1.9388C47.4451 1.1895 46.7614 0.608464 45.9493 0.284607C45.1372 -0.0392494 44.2413 -0.0880851 43.3988 0.145574C42.5562 0.379232 41.8134 0.882514 41.2841 1.5784C40.7548 2.27429 40.468 3.12445 40.4678 3.99878V54.1582C36.3746 50.5015 31.1503 48.3605 25.6682 48.093C20.1861 47.8255 14.7782 49.4477 10.3484 52.6884C5.91861 55.9291 2.73532 60.5921 1.33055 65.8979C-0.0742254 71.2038 0.384643 76.831 2.63046 81.8392C4.87627 86.8474 8.77295 90.933 13.6693 93.4133C18.5655 95.8935 24.1648 96.6181 29.5312 95.466C34.8975 94.3138 39.7059 91.3547 43.1526 87.0832C46.5993 82.8117 48.4755 77.4867 48.4677 71.998V15.2587ZM24.4679 87.9978C21.3035 87.9978 18.2101 87.0594 15.5789 85.3014C12.9478 83.5433 10.897 81.0444 9.68604 78.1209C8.47505 75.1973 8.1582 71.9802 8.77556 68.8766C9.39291 65.7729 10.9167 62.922 13.1544 60.6844C15.392 58.4468 18.2429 56.923 21.3465 56.3056C24.4502 55.6883 27.6672 56.0051 30.5908 57.2161C33.5144 58.4271 36.0132 60.4778 37.7713 63.109C39.5294 65.7401 40.4678 68.8335 40.4678 71.998C40.4678 76.2414 38.7821 80.311 35.7815 83.3116C32.781 86.3121 28.7114 87.9978 24.4679 87.9978Z" fill="#203442"/>
</svg>
