<svg width="21" height="19" viewBox="0 0 21 19" fill="none" xmlns="http://www.w3.org/2000/svg">
<path d="M9.54888 0.927066C9.84824 0.00575542 11.1516 0.00575727 11.451 0.927068L13.0819 5.94632C13.2157 6.35834 13.5997 6.6373 14.0329 6.6373H19.3105C20.2792 6.6373 20.682 7.87692 19.8982 8.44632L15.6286 11.5484C15.2781 11.803 15.1315 12.2544 15.2653 12.6664L16.8962 17.6857C17.1956 18.607 16.1411 19.3731 15.3574 18.8037L11.0877 15.7016C10.7372 15.447 10.2626 15.447 9.91216 15.7016L5.64252 18.8037C4.85881 19.3731 3.80433 18.607 4.10368 17.6857L5.73454 12.6664C5.86841 12.2544 5.72175 11.803 5.37126 11.5484L1.10163 8.44632C0.317917 7.87692 0.720695 6.6373 1.68942 6.6373H6.96697C7.4002 6.6373 7.78416 6.35834 7.91803 5.94632L9.54888 0.927066Z" fill="black"/>
</svg>
